<?xml version="1.0" encoding="utf-8"?>
<!-- Generator: Adobe Illustrator 27.5.0, SVG Export Plug-In . SVG Version: 6.00 Build 0)  -->
<svg version="1.1" xmlns="http://www.w3.org/2000/svg" xmlns:xlink="http://www.w3.org/1999/xlink" x="0px" y="0px"
	 viewBox="0 0 500 500" style="enable-background:new 0 0 500 500;" xml:space="preserve">
<g id="Robot_00000109013132273940593080000008853202145703500727_">
	<g id="Robot">
		<g id="Leg">
			<path style="fill:#303030;" d="M293.384,380.45l-89.601,35.676c-6.812,2.712-10.135,10.433-7.423,17.244l0,0
				c2.712,6.812,10.433,10.135,17.244,7.423l89.601-35.676c6.812-2.712,10.135-10.433,7.423-17.244l0,0
				C307.916,381.061,300.195,377.738,293.384,380.45z"/>
			
				<ellipse transform="matrix(0.576 -0.8175 0.8175 0.576 -191.9757 416.327)" style="fill:#00826F;" cx="305.318" cy="393.213" rx="21.431" ry="21.431"/>
			<path style="fill:#303030;" d="M403.171,421.323l-82.837-36.053c-6.723-2.926-14.544,0.152-17.47,6.875l0,0
				c-2.926,6.723,0.152,14.544,6.875,17.47l82.837,36.053c6.723,2.926,14.544-0.152,17.47-6.875v0
				C412.971,432.07,409.894,424.249,403.171,421.323z"/>
			<g>
				<path style="fill:#303030;" d="M431.138,384.366c-23.459-10.21-31.327,0.974-52.69,26.197c0,0-8.411,12.304-10.595,24.345
					l13.168,5.731L431.138,384.366z"/>
				<path style="fill:#00826F;" d="M430.529,384.101l0.609,0.265c-7.164-3.118-15.53-0.471-19.597,6.201l-25.932,42.544
					c-2.426,3.98-0.779,9.186,3.495,11.047l9.041,3.935c4.474,1.947,9.701,0.494,12.527-3.484l26.365-37.106
					C442.791,399.404,439.637,388.065,430.529,384.101z"/>
				<path style="fill:#303030;" d="M436.283,386.605l0.609,0.265c-7.164-3.118-15.53-0.471-19.597,6.201l-25.932,42.544
					c-2.426,3.98-0.779,9.186,3.495,11.047l8.836,3.845c4.594,1.999,9.96,0.507,12.862-3.577l26.235-36.924
					C448.544,401.908,445.391,390.569,436.283,386.605z"/>
				<g>
					
						<line style="fill:none;stroke:#00826F;stroke-width:1.5;stroke-linecap:round;stroke-linejoin:round;stroke-miterlimit:10;" x1="417.328" y1="401.726" x2="437.789" y2="410.631"/>
					
						<line style="fill:none;stroke:#00826F;stroke-width:1.5;stroke-linecap:round;stroke-linejoin:round;stroke-miterlimit:10;" x1="411.406" y1="412.241" x2="430.145" y2="420.396"/>
					
						<line style="fill:none;stroke:#00826F;stroke-width:1.5;stroke-linecap:round;stroke-linejoin:round;stroke-miterlimit:10;" x1="404.685" y1="423.153" x2="421.898" y2="430.644"/>
				</g>
			</g>
		</g>
		<g id="Arm_00000074425720817402810800000017660513987509029539_">
			<g>
				<path style="fill:#303030;" d="M247.613,218.667c-0.855-0.657-1.875-1.124-3.009-1.325c-3.767-0.667-7.362,1.846-8.03,5.612
					c-1.71,9.655,1.483,20.431,8.336,28.121c6.634,7.442,15.739,11.212,25.646,10.613c3.818-0.23,6.727-3.513,6.497-7.331
					c-0.229-3.821-3.514-6.728-7.331-6.497c-7.156,0.432-11.818-3.03-14.469-6.001c-4.032-4.526-6.011-10.998-5.037-16.488
					C250.682,222.74,249.596,220.191,247.613,218.667z"/>
			</g>
			<g>
				<path style="fill:#303030;" d="M290.276,247.119c-3.384-2.601-8.12-3.113-12.1-0.926c-5.363,2.949-7.321,9.687-4.371,15.051
					c1.523,2.771,16.69,27.028,2.167,42.973c-9.709,10.66-29.488,0.155-43.88-6.052c-6.539-2.82-12.88-0.014-15.197,5.652
					c-4.118,10.071,4.78,14.823,10.234,17.605c14.508,7.399,45.795,19.646,66.407-2.113c18.396-19.421,10.171-49.686-0.308-68.745
					C292.467,249.181,291.453,248.023,290.276,247.119z"/>
			</g>
			
				<ellipse transform="matrix(0.8796 -0.4758 0.4758 0.8796 -85.2452 164.3038)" style="fill:#00826F;" cx="281.937" cy="250.542" rx="21.431" ry="21.431"/>
			<g>
				<path style="fill:#303030;" d="M286.885,204.732c-3.824-2.939-8.34-5.25-13.365-6.773c-3.661-1.109-7.529,0.96-8.638,4.62
					c-1.109,3.661,0.956,7.529,4.62,8.638c7.48,2.265,13.113,6.955,15.466,12.867c1.986,4.995,1.426,10.45-1.62,15.773
					c-1.9,3.319-0.755,7.545,2.572,9.452c3.32,1.9,7.552,0.749,9.452-2.572c5.141-8.984,6.018-18.846,2.468-27.772
					C295.63,213.404,291.841,208.541,286.885,204.732z"/>
			</g>
			
				<ellipse transform="matrix(0.7275 -0.6861 0.6861 0.7275 -150.8897 228.2079)" style="fill:#00826F;" cx="211.859" cy="304.068" rx="25.169" ry="25.169"/>
		</g>
		<g id="Chest_00000103263256658809348250000012813342622082635444_">
			
				<path style="fill:#FFFFFF;stroke:#303030;stroke-width:1.5;stroke-linecap:round;stroke-linejoin:round;stroke-miterlimit:10;" d="
				M63.864,410.219c1.386,23.52,21.645,41.863,46.054,41.863h33.391l32.977-0.348c25.31-0.267,45.598-21.027,45.283-46.337
				l-1.203-96.739c0-16.489-3.33-26.001-17.079-30.691c-15.928-5.434-30.965-7.464-55.688-9.29
				c-47.451-3.506-68.032,1.914-78.439,22.559C63.201,303.055,61.399,368.386,63.864,410.219z"/>
		</g>
		<g>
			<path style="fill:#00826F;" d="M205.088,387.838h-76.299c-3.785,0-6.853-3.068-6.853-6.853v-66.437
				c0-3.785,3.068-6.853,6.853-6.853h76.299c3.785,0,6.853,3.068,6.853,6.853v66.437
				C211.941,384.769,208.873,387.838,205.088,387.838z"/>
			<path style="fill:#303030;" d="M121.936,314.547v66.437c0,3.785,3.068,6.853,6.853,6.853h69.042c3.785,0,6.853-3.068,6.853-6.853
				v-66.437c0-3.785-3.068-6.853-6.853-6.853h-69.042C125.004,307.694,121.936,310.763,121.936,314.547z"/>
			<g>
				<path style="fill:#F55571;" d="M158.502,307.694l0.563,1.852c-1.039,0.792-1.957,1.691-2.752,2.671l-4.114-1.37
					c-0.629-0.206-1.317,0.094-1.581,0.707l-2.185,5.076c-0.253,0.608-0.009,1.319,0.572,1.634l3.829,2.03
					c-0.173,1.267-0.184,2.547-0.049,3.835l-3.89,1.939c-0.585,0.298-0.851,1.003-0.609,1.61l2.045,5.137
					c0.246,0.618,0.924,0.947,1.549,0.75l4.158-1.265c0.787,1.028,1.68,1.962,2.671,2.752l-1.382,4.118
					c-0.205,0.629,0.106,1.312,0.708,1.581l5.071,2.174c0.613,0.264,1.323,0.02,1.634-0.573l2.035-3.818
					c1.267,0.173,2.547,0.184,3.846,0.044l1.935,3.878c0.291,0.6,0.996,0.866,1.614,0.62l5.126-2.041
					c0.618-0.246,0.947-0.924,0.758-1.564l-1.272-4.142c1.039-0.791,1.962-1.68,2.763-2.676l4.102,1.374
					c0.633,0.217,1.317-0.094,1.58-0.707l2.189-5.065c0.264-0.613,0.009-1.319-0.572-1.634l-3.834-2.041
					c0.177-1.255,0.184-2.547,0.049-3.835l3.89-1.939c0.6-0.291,0.867-0.996,0.62-1.614l-2.045-5.137
					c-0.242-0.607-0.919-0.936-1.56-0.746l-4.158,1.265c-0.787-1.028-1.675-1.951-2.671-2.752l0.718-2.128H158.502z
					 M172.547,331.536c-5.024,2.001-10.718-0.46-12.714-5.472c-2-5.024,0.448-10.713,5.473-12.714
					c5.024-2,10.713,0.448,12.714,5.473C180.016,323.836,177.572,329.536,172.547,331.536z"/>
				<path style="fill:#F55571;" d="M180.746,382.522c1.154-0.073,2.043-1.029,2.054-2.181l0.09-9.579
					c0.011-1.132-0.86-2.104-2.012-2.219l-7.498-0.699c-0.587-2.165-1.406-4.226-2.478-6.165l4.916-5.676
					c0.742-0.873,0.712-2.173-0.098-2.998l-6.706-6.833c-0.81-0.825-2.109-0.879-2.996-0.154l-5.767,4.788
					c-1.919-1.087-3.965-1.966-6.139-2.594l-0.538-7.488c-0.094-1.154-1.05-2.043-2.202-2.053l-9.558-0.09
					c-1.153-0.011-2.125,0.86-2.22,2.012l-0.699,7.477c-2.185,0.588-4.248,1.428-6.165,2.479l-5.698-4.895
					c-0.873-0.742-2.173-0.712-2.998,0.098l-2.099,2.06v33.175c0,3.785,3.068,6.853,6.853,6.853h8.559
					c-4.595-3.25-7.339-8.933-6.347-15.141c1.088-6.817,6.777-12.16,13.646-12.847c9.329-0.933,17.138,6.403,17.053,15.515
					c-0.048,5.16-2.638,9.702-6.562,12.473h16.24c0.76-1.51,1.378-3.107,1.859-4.757L180.746,382.522z"/>
				<path style="fill:#F55571;" d="M155.113,375.302c0.046-4.897-3.883-8.901-8.78-8.947c-4.898-0.046-8.901,3.883-8.947,8.78
					c-0.046,4.886,3.883,8.901,8.781,8.947C151.064,384.129,155.068,380.189,155.113,375.302z"/>
			</g>
		</g>
		<g id="Neck">
			<path style="fill:#00826F;" d="M163.152,283.271c-5.482,3.675-25.382,3.129-31.905-1.979
				c-0.432-15.129,4.693-27.539,11.719-39.887l30.638,4.559C167.602,258.464,161.923,269.694,163.152,283.271z"/>
			<path style="fill:none;stroke:#303030;stroke-width:1.5;stroke-linecap:round;stroke-linejoin:round;stroke-miterlimit:10;" d="
				M135.057,258.112c7.475,7.188,26.395,8.025,30.745,5.704"/>
			<path style="fill:none;stroke:#303030;stroke-width:1.5;stroke-linecap:round;stroke-linejoin:round;stroke-miterlimit:10;" d="
				M131.749,270.6c9.749,6.978,27.064,5.527,31.693,3.042"/>
			<path style="fill:none;stroke:#303030;stroke-width:1.5;stroke-linecap:round;stroke-linejoin:round;stroke-miterlimit:10;" d="
				M131.247,281.292c2.99,3.762,24.596,6.414,31.905,1.979"/>
		</g>
		<g id="Head_00000171692200398006412780000005540355732861074087_">
			<path style="fill:#00826F;" d="M246.028,227.199c2.174-7.944,2.643-18.263,1.531-22.915c-1.164-4.864-3.154-5.759-6.116-6.575
				l-12.347-3.4c-14.182-1.194-17.63,39.764-3.448,40.958l14.049-2.25C242.773,232.524,244.921,231.243,246.028,227.199z"/>
			<g>
				
					<path style="fill:#FFFFFF;stroke:#303030;stroke-width:1.5;stroke-linecap:round;stroke-linejoin:round;stroke-miterlimit:10;" d="
					M194.407,260.268c-31.111-0.953-61.821-8.153-90.543-20.245c-16.751-7.053-25.679-25.345-20.936-42.891
					c2.831-10.473,6.873-20.492,11.671-30.354c6.684-13.739,21.362-21.829,36.531-20.001c26.29,3.168,51.961,9.105,77.117,17.424
					c14.318,4.735,24.233,17.855,24.777,32.926c0.395,10.942,0.104,21.964-1.6,32.692
					C228.557,247.871,212.677,260.827,194.407,260.268z"/>
			</g>
			<path style="fill:none;stroke:#303030;stroke-width:1.5;stroke-linecap:round;stroke-linejoin:round;stroke-miterlimit:10;" d="
				M174.947,154.687c15.163,26.167,0.682,78.897-21.919,100.587"/>
			<g>
				<path style="fill:#303030;" d="M224.512,203.219c0.571-4.537-1.853-8.448-4.287-9.744c-10.182-5.42-24.068-11.061-39.259-13.778
					c-15.191-2.717-37.182-5.486-48.641-2.506c-2.785,0.724-5.523,3.914-7.058,8.278c-1.812,5.152-4.286,10.17-6.91,19.133
					c-2.075,7.091,0.705,12.125,4.185,14.515c9.657,6.632,25.452,11.44,44.421,15.685c15.018,3.361,36.478,3.694,43.064,2.476
					c6.136-1.135,8.663-3.265,11.022-11.502C223.609,216.829,223.836,208.586,224.512,203.219z"/>
			</g>
			<path style="fill:#00826F;" d="M159.339,205.019c-0.986,2.732-4.001,4.147-6.733,3.161c-2.732-0.986-4.147-4.001-3.161-6.733
				c0.986-2.732,4.001-4.147,6.733-3.16C158.91,199.273,160.325,202.287,159.339,205.019z"/>
			<circle style="fill:#00826F;" cx="199.921" cy="212.303" r="5.259"/>
			<g>
				<g>
					<g>
						<path style="fill:#303030;" d="M107.343,105.64c-6.01,6.953-11.34,14.549-15.117,22.956
							c-3.999,8.904-6.421,18.691-7.251,28.408c-0.451,5.284-0.373,10.665,0.723,15.87c0.199,0.944,1.645,0.544,1.446-0.399
							c-0.952-4.522-1.08-9.188-0.794-13.789c0.3-4.833,1.084-9.632,2.203-14.341c1.086-4.573,2.473-9.102,4.292-13.44
							c1.882-4.488,4.237-8.776,6.903-12.844c2.613-3.987,5.539-7.756,8.655-11.361C109.032,105.973,107.975,104.908,107.343,105.64
							L107.343,105.64z"/>
					</g>
				</g>
				<g>
					<path style="fill:#F55571;" d="M101.694,103.939c-1.338,3.707,0.582,7.796,4.288,9.135s7.796-0.581,9.135-4.288
						c1.338-3.706-0.581-7.796-4.288-9.135C107.122,98.313,103.033,100.232,101.694,103.939z"/>
				</g>
			</g>
			<g>
				<path style="fill:#00826F;" d="M83.296,207.092l-8.731-4.191c-2.977-1.429-5.136-4.303-4.861-8.904
					c0.275-4.601,2.902-16.086,5.722-22.446c1.808-4.077,4.765-5.116,8.02-5.051l9.787,0.196
					C103.637,168.855,93.701,209.252,83.296,207.092z"/>
			</g>
		</g>
		<g id="Arm_00000069387953438516556060000011343903412763120818_">
			<g>
				<path style="fill:#303030;" d="M122.071,373.643c1.049-0.25,2.054-0.748,2.924-1.502c2.891-2.506,3.203-6.88,0.699-9.771
					c-6.422-7.41-16.803-11.717-27.092-11.239c-9.958,0.465-18.622,5.162-24.397,13.234c-2.226,3.111-1.509,7.437,1.602,9.663
					c3.111,2.229,7.439,1.509,9.663-1.602c4.172-5.83,9.797-7.271,13.775-7.458c6.055-0.281,12.328,2.259,15.978,6.473
					C116.975,373.461,119.639,374.223,122.071,373.643z"/>
			</g>
			
				<ellipse transform="matrix(0.8973 -0.4414 0.4414 0.8973 -124.2496 64.1462)" style="fill:#00826F;" cx="75.726" cy="299.086" rx="25.169" ry="25.169"/>
			<g>
				<path style="fill:#303030;" d="M73.1,388.858c4.152-0.99,7.532-4.345,8.34-8.815c1.088-6.023-2.912-11.788-8.937-12.875
					c-3.112-0.563-27.612-4.921-30.848-26.244c-2.164-14.255,14.56-22.142,28.447-29.41c6.309-3.302,8.124-9.995,5.182-15.363
					c-5.229-9.542-14.524-5.625-20.12-3.141c-14.885,6.607-39.358,22.758-35.44,52.472c3.497,26.521,27.437,39.632,48.84,43.498
					C70.119,389.26,71.657,389.202,73.1,388.858z"/>
			</g>
			
				<ellipse transform="matrix(0.4012 -0.916 0.916 0.4012 -302.9521 296.9953)" style="fill:#00826F;" cx="75.694" cy="380.224" rx="21.431" ry="21.431"/>
			<g>
				<path style="fill:#303030;" d="M108.157,412.922c4.691-1.119,9.331-3.171,13.679-6.114c3.167-2.145,3.997-6.452,1.852-9.619
					c-2.145-3.167-6.45-4-9.619-1.852c-6.471,4.383-13.661,5.804-19.735,3.908c-5.13-1.604-9.014-5.475-11.231-11.194
					c-1.382-3.566-5.384-5.339-8.961-3.956c-3.567,1.382-5.338,5.394-3.956,8.961c3.74,9.652,10.847,16.545,20.016,19.41
					C95.914,414.252,102.078,414.372,108.157,412.922z"/>
			</g>
		</g>
		<g id="Leg_00000034082601218944236810000011476294300443470727_">
			<path style="fill:#303030;" d="M206.26,424.892l-87.608,0.64c-7.331,0.078-13.212,6.084-13.134,13.415l0,0
				c0.078,7.331,6.084,13.212,13.415,13.134l87.608-0.64c7.331-0.078,13.212-6.084,13.134-13.415l0,0
				C219.598,430.695,213.591,424.815,206.26,424.892z"/>
			
				<ellipse transform="matrix(0.9811 -0.1937 0.1937 0.9811 -80.3987 49.7139)" style="fill:#00826F;" cx="214.018" cy="435.985" rx="21.431" ry="21.431"/>
			<path style="fill:#303030;" d="M313.833,423.754l-90.337,0.956c-7.331,0.078-13.212,6.084-13.134,13.415l0,0
				c0.078,7.331,6.084,13.212,13.415,13.134l90.337-0.957c7.331-0.078,13.212-6.084,13.134-13.415l0,0
				C327.171,429.556,321.165,423.676,313.833,423.754z"/>
			<g>
				<path style="fill:#303030;" d="M327.729,378.556c-25.584,0.271-28.192,13.694-37.379,45.446c0,0-2.647,14.668,0.281,26.549
					l14.36-0.152L327.729,378.556z"/>
				<path style="fill:#00826F;" d="M327.065,378.563l0.664-0.007c-7.813,0.083-14.366,5.918-15.35,13.669l-6.277,49.427
					c-0.587,4.624,3.044,8.702,7.705,8.653l9.859-0.104c4.879-0.052,9.055-3.515,10.009-8.3l8.894-44.642
					C344.511,387.518,336.997,378.458,327.065,378.563z"/>
				<path style="fill:#303030;" d="M333.34,378.497l0.664-0.007c-7.813,0.083-14.366,5.918-15.351,13.669l-6.277,49.427
					c-0.587,4.624,3.044,8.702,7.705,8.653l9.636-0.102c5.01-0.053,9.297-3.609,10.276-8.522l8.851-44.422
					C350.785,387.451,343.272,378.392,333.34,378.497z"/>
				<g>
					
						<line style="fill:none;stroke:#00826F;stroke-width:1.5;stroke-linecap:round;stroke-linejoin:round;stroke-miterlimit:10;" x1="322.222" y1="400.045" x2="344.535" y2="399.809"/>
					
						<line style="fill:none;stroke:#00826F;stroke-width:1.5;stroke-linecap:round;stroke-linejoin:round;stroke-miterlimit:10;" x1="321.115" y1="412.061" x2="341.551" y2="411.845"/>
					
						<line style="fill:none;stroke:#00826F;stroke-width:1.5;stroke-linecap:round;stroke-linejoin:round;stroke-miterlimit:10;" x1="319.441" y1="424.768" x2="338.212" y2="424.569"/>
				</g>
			</g>
		</g>
		
			<line style="fill:none;stroke:#303030;stroke-width:1.5;stroke-linecap:round;stroke-linejoin:round;stroke-miterlimit:10;" x1="109.919" y1="452.082" x2="44.452" y2="452.082"/>
	</g>
</g>
<g id="Steel_Springs">
	<g id="Steel_Springs_00000105410598079880757600000006705276389868434090_">
		<g>
			<g>
				<path style="fill:#F55571;" d="M193.174,361.185c4.019-3.077,8.773-5.103,13.738-6.048c3.865-0.736,7.928-0.828,11.77,0.104
					c3.317,0.805,6.431,2.387,8.845,4.826c2.925,2.956,4.594,6.946,5.232,11.017c0.656,4.184-0.402,8.783-3.451,11.836
					c-2.624,2.627-7.07,3.865-9.78,0.621c-1.375-1.646-1.386-3.935-0.784-5.902c0.605-1.974,1.9-3.666,3.46-4.989
					c3.16-2.68,7.449-3.749,11.49-2.847c7.776,1.737,13.519,9.656,14.124,17.392c0.075,0.957,0.069,1.915-0.012,2.871
					c-0.082,0.962,1.418,0.956,1.5,0c0.735-8.599-4.805-17.742-12.825-20.964c-4.229-1.699-8.992-1.43-12.964,0.822
					c-3.894,2.207-7.071,6.372-6.603,11.043c0.235,2.341,1.738,4.413,3.87,5.415c1.935,0.91,4.115,0.785,6.063-0.021
					c3.996-1.654,6.57-5.7,7.323-9.848c0.862-4.751-0.426-9.998-2.921-14.092c-2.042-3.35-5.098-5.939-8.702-7.473
					c-3.502-1.49-7.342-2.018-11.129-1.842c-5.475,0.253-10.929,1.826-15.679,4.566c-1.155,0.666-2.263,1.408-3.322,2.219
					C191.661,360.469,192.407,361.772,193.174,361.185L193.174,361.185z"/>
			</g>
		</g>
		<g>
			<g>
				<path style="fill:#F55571;" d="M192.686,354.2c2.787-5.987,7.738-10.907,13.658-13.808c5.567-2.728,11.987-3.407,17.758-0.9
					c2.745,1.192,5.412,3.009,7.026,5.582c0.766,1.221,1.365,2.704,1.382,4.164c0.016,1.346-0.9,3.246-2.546,2.706
					c-1.264-0.414-1.956-1.983-2.066-3.21c-0.139-1.55,0.332-3.178,1.082-4.521c1.544-2.766,4.518-4.846,7.756-4.783
					c6.305,0.123,11.417,4.784,13.055,10.712c0.201,0.727,0.36,1.47,0.46,2.218c0.054,0.405,0.306,0.745,0.75,0.75
					c0.364,0.004,0.804-0.348,0.75-0.75c-0.461-3.436-1.8-6.689-4.093-9.313c-2.233-2.556-5.332-4.323-8.682-4.889
					c-1.805-0.305-3.627-0.335-5.375,0.277c-1.737,0.608-3.304,1.682-4.52,3.062c-2.239,2.54-3.689,6.618-1.921,9.795
					c0.791,1.421,2.256,2.487,3.94,2.164c1.878-0.361,2.827-2.247,2.904-4.012c0.148-3.417-2.274-6.661-4.823-8.667
					c-5.552-4.37-12.913-5.371-19.58-3.29c-7.03,2.194-13.224,7.237-16.958,13.566c-0.458,0.776-0.874,1.574-1.255,2.391
					C190.986,354.313,192.278,355.075,192.686,354.2L192.686,354.2z"/>
			</g>
		</g>
		<path style="fill:#F55571;" d="M259.687,363.612l-0.847-0.344c0.035-0.719-0.034-1.439-0.209-2.116l0.771-0.492
			c0.21-0.146,0.289-0.415,0.168-0.638l-0.984-1.855c-0.121-0.224-0.394-0.325-0.621-0.225l-0.848,0.364
			c-0.461-0.522-1.011-0.987-1.644-1.352l0.203-0.899c0.052-0.245-0.093-0.497-0.333-0.568l-2.008-0.615
			c-0.249-0.074-0.505,0.049-0.595,0.283l-0.347,0.857c-0.717-0.045-1.426,0.027-2.113,0.199l-0.501-0.774
			c-0.137-0.207-0.408-0.277-0.641-0.158l-1.846,0.987c-0.221,0.112-0.322,0.384-0.223,0.612l0.364,0.848
			c-0.525,0.47-0.99,1.021-1.352,1.644l-0.902-0.194c-0.245-0.052-0.487,0.096-0.565,0.323l-0.617,2.018
			c-0.071,0.24,0.052,0.495,0.286,0.585l0.857,0.347c-0.048,0.726,0.024,1.436,0.199,2.113l-0.774,0.501
			c-0.207,0.137-0.28,0.418-0.168,0.639l0.987,1.846c0.119,0.233,0.394,0.325,0.622,0.225l0.848-0.364
			c0.468,0.534,1.021,0.99,1.644,1.352l-0.194,0.902c-0.061,0.243,0.083,0.494,0.333,0.568l1.999,0.612
			c0.249,0.074,0.505-0.049,0.604-0.28l0.335-0.85c0.729,0.038,1.439-0.033,2.116-0.209l0.501,0.774
			c0.134,0.217,0.418,0.28,0.639,0.168l1.855-0.984c0.224-0.122,0.313-0.387,0.216-0.624l-0.365-0.848
			c0.532-0.458,0.987-1.012,1.352-1.644l0.899,0.203c0.255,0.055,0.497-0.093,0.568-0.333l0.615-2.008
			C260.05,363.97,259.921,363.702,259.687,363.612z M250.862,366.654c-2.1-0.621-3.296-2.82-2.675-4.92
			c0.621-2.1,2.82-3.296,4.92-2.675c2.1,0.621,3.296,2.82,2.675,4.92C255.161,366.08,252.962,367.275,250.862,366.654z"/>
	</g>
</g>
<g id="_x34_04_Error_00000113312142628236153960000001216271193145756845_">
	<g id="_x34_04_Error">
		<path d="M341.186,166.948h7.73c1.121,0,2.03-0.909,2.03-2.03l0,0c0-1.121-0.909-2.03-2.03-2.03h-7.73v-4.492h8.66
			c1.121,0,2.03-0.909,2.03-2.03v-0.123c0-1.121-0.909-2.03-2.03-2.03h-8.66h-1.146h-3.718v19.844c0,1.121,0.909,2.03,2.03,2.03
			h1.688h1.146h8.815c1.121,0,2.03-0.909,2.03-2.03v-0.154c0-1.121-0.909-2.03-2.03-2.03h-8.815V166.948z M413.392,157.08
			c-1.043-1.022-2.262-1.817-3.656-2.386c-1.395-0.568-2.908-0.853-4.539-0.853c-1.653,0-3.176,0.284-4.57,0.853
			c-1.394,0.568-2.608,1.363-3.64,2.386c-1.033,1.023-1.839,2.215-2.417,3.578c-0.579,1.363-0.867,2.851-0.867,4.462
			c0,1.591,0.289,3.072,0.867,4.446c0.578,1.373,1.395,2.576,2.448,3.609c1.053,1.033,2.277,1.838,3.671,2.416
			c1.395,0.578,2.918,0.868,4.57,0.868c1.611,0,3.114-0.29,4.508-0.868c1.395-0.578,2.607-1.378,3.641-2.4
			c1.033-1.023,1.838-2.221,2.417-3.595c0.578-1.373,0.868-2.855,0.868-4.446c0-1.61-0.289-3.102-0.868-4.477
			C415.246,159.3,414.435,158.102,413.392,157.08z M410.898,168.729c-0.537,1.043-1.296,1.855-2.277,2.432
			c-0.981,0.579-2.122,0.868-3.423,0.868c-0.971,0-1.859-0.165-2.665-0.496c-0.806-0.33-1.493-0.8-2.06-1.409
			c-0.568-0.609-1.007-1.338-1.317-2.185c-0.31-0.847-0.464-1.786-0.464-2.819c0-1.384,0.268-2.587,0.805-3.609
			c0.537-1.023,1.296-1.817,2.277-2.386c0.981-0.568,2.123-0.853,3.424-0.853c0.971,0,1.854,0.16,2.649,0.48
			c0.795,0.32,1.482,0.785,2.061,1.395c0.578,0.609,1.022,1.332,1.332,2.168c0.31,0.837,0.465,1.771,0.465,2.805
			C411.703,166.483,411.435,167.686,410.898,168.729z M368.079,166.266c1.115-0.537,1.983-1.286,2.603-2.247
			c0.62-0.96,0.93-2.08,0.93-3.361c0-1.26-0.31-2.375-0.93-3.346c-0.62-0.971-1.477-1.73-2.572-2.277
			c-1.095-0.548-2.365-0.821-3.811-0.821h-4.059h-1.146h-3.718v19.442c0,1.343,1.089,2.432,2.432,2.432l0,0
			c1.343,0,2.432-1.089,2.432-2.432v-6.584h0.508l5.844,8.075c0.428,0.591,1.113,0.941,1.843,0.941l0,0
			c1.884,0,2.952-2.159,1.808-3.656l-4.221-5.526C366.767,166.773,367.457,166.566,368.079,166.266z M363.711,163.477h-3.47v-5.483
			h3.501c0.971,0,1.714,0.258,2.231,0.774c0.516,0.517,0.774,1.167,0.774,1.952c0,0.847-0.263,1.518-0.79,2.014
			C365.43,163.229,364.681,163.477,363.711,163.477z M430.436,166.905c0.745-0.132,1.435-0.339,2.057-0.639
			c1.115-0.537,1.983-1.286,2.603-2.247c0.62-0.96,0.93-2.08,0.93-3.361c0-1.26-0.31-2.375-0.93-3.346
			c-0.62-0.971-1.477-1.73-2.572-2.277c-1.095-0.548-2.365-0.821-3.811-0.821h-4.059h-1.146h-3.718v19.442
			c0,1.343,1.089,2.432,2.432,2.432l0,0c1.343,0,2.432-1.089,2.432-2.432v-6.584h0.508l5.844,8.075
			c0.428,0.591,1.113,0.941,1.843,0.941l0,0c1.884,0,2.952-2.159,1.808-3.656L430.436,166.905z M428.125,163.477h-3.47v-5.483h3.501
			c0.971,0,1.714,0.258,2.231,0.774c0.516,0.517,0.774,1.167,0.774,1.952c0,0.847-0.263,1.518-0.79,2.014
			C429.844,163.229,429.095,163.477,428.125,163.477z M387.847,166.266c1.115-0.537,1.983-1.286,2.603-2.247
			c0.62-0.96,0.93-2.08,0.93-3.361c0-1.26-0.31-2.375-0.93-3.346c-0.62-0.971-1.477-1.73-2.572-2.277
			c-1.095-0.548-2.365-0.821-3.811-0.821h-4.059h-1.147h-3.718v19.442c0,1.343,1.089,2.432,2.432,2.432l0,0
			c1.343,0,2.432-1.089,2.432-2.432v-6.584h0.508l5.844,8.075c0.428,0.591,1.113,0.941,1.843,0.941h0
			c1.884,0,2.952-2.159,1.808-3.656l-4.221-5.526C386.534,166.773,387.224,166.566,387.847,166.266z M383.478,163.477h-3.47v-5.483
			h3.501c0.971,0,1.714,0.258,2.231,0.774c0.516,0.517,0.775,1.167,0.775,1.952c0,0.847-0.263,1.518-0.79,2.014
			C385.198,163.229,384.449,163.477,383.478,163.477z"/>
		<g>
			<g>
				<path style="fill:#00826F;" d="M253.576,105.387h-10.22V86.37h-19.922v19.017h-18.611l27.667-53.816h-22.121l-30.012,59.637
					v11.384h43.078v10.35c0,5.501,4.46,9.961,9.961,9.961l0,0c5.501,0,9.961-4.46,9.961-9.961v-10.35h10.22V105.387z"/>
				<path style="fill:#00826F;" d="M436.625,105.387h-10.22V86.37h-19.922v19.017h-18.611l27.667-53.816h-22.121l-30.012,59.637
					v11.384h43.078v10.35c0,5.501,4.46,9.961,9.961,9.961l0,0c5.501,0,9.961-4.46,9.961-9.961v-10.35h10.22V105.387z"/>
			</g>
			<path style="fill:#F55571;" d="M355.984,95.535l-5.06-2.057c0.212-4.298-0.201-8.593-1.246-12.639l4.605-2.936
				c1.255-0.874,1.729-2.478,1.003-3.814l-5.88-11.082c-0.726-1.336-2.353-1.942-3.712-1.347l-5.066,2.177
				c-2.753-3.119-6.042-5.897-9.821-8.074l1.214-5.371c0.309-1.466-0.555-2.967-1.987-3.391l-11.996-3.671
				c-1.489-0.44-3.014,0.292-3.552,1.69l-2.073,5.117c-4.281-0.269-8.518,0.16-12.622,1.189l-2.994-4.622
				c-0.817-1.238-2.438-1.655-3.831-0.946l-11.024,5.897c-1.319,0.669-1.925,2.296-1.33,3.655l2.177,5.066
				c-3.135,2.81-5.915,6.1-8.073,9.821l-5.389-1.157c-1.466-0.309-2.909,0.572-3.373,1.93l-3.688,12.052
				c-0.423,1.432,0.31,2.957,1.708,3.495l5.117,2.073c-0.286,4.338,0.142,8.575,1.189,12.622l-4.623,2.993
				c-1.238,0.818-1.672,2.496-1.003,3.815l5.897,11.024c0.71,1.393,2.354,1.942,3.714,1.347l5.066-2.177
				c2.793,3.193,6.1,5.914,9.821,8.074l-1.157,5.388c-0.366,1.449,0.498,2.95,1.987,3.391l11.938,3.654
				c1.489,0.44,3.014-0.292,3.609-1.674l1.999-5.077c4.354,0.229,8.593-0.2,12.639-1.246l2.994,4.622
				c0.801,1.296,2.495,1.672,3.815,1.003l11.082-5.88c1.335-0.726,1.867-2.313,1.29-3.729l-2.178-5.066
				c3.176-2.736,5.898-6.042,8.074-9.821l5.371,1.214c1.523,0.326,2.967-0.555,3.39-1.987l3.671-11.995
				C358.155,97.673,357.382,96.074,355.984,95.535z M303.271,113.71c-12.544-3.709-19.685-16.845-15.976-29.39
				c3.709-12.544,16.845-19.685,29.389-15.976c12.545,3.709,19.686,16.845,15.977,29.39
				C328.952,110.278,315.816,117.419,303.271,113.71z"/>
		</g>
	</g>
</g>
<g id="Speech_Bubble">
	<g id="Speech_Bubble_00000098912707189998758170000003102039715188969127_">
		
			<path id="Speech_Bubble_00000080208407698104682290000017221834535197306250_" style="fill:#FFFFFF;stroke:#303030;stroke-width:1.5;stroke-linecap:round;stroke-linejoin:round;stroke-miterlimit:10;" d="
			M398.691,230.756c-39.076,0-70.754,18.118-70.754,50.335c0,19.216,11.274,33.413,28.662,41.744l-3.654,10.548l-13.82,1.527
			l-9.721,18.258l11.776-11.204l19.466,1.445l12.65-14.8c7.885,1.854,16.442,2.816,25.395,2.816
			c39.076,0,70.754-18.118,70.754-50.335S437.767,230.756,398.691,230.756z"/>
		<g>
			<path style="fill:#FF95FB;" d="M358.662,295.058c-2.222,0-4.27-0.389-6.144-1.166c-1.875-0.776-3.52-1.86-4.936-3.249
				c-1.416-1.388-2.513-3.006-3.291-4.854c-0.778-1.846-1.166-3.838-1.166-5.977c0-2.167,0.389-4.166,1.166-5.999
				c0.777-1.832,1.86-3.436,3.249-4.811c1.388-1.375,3.02-2.443,4.895-3.207c1.875-0.763,3.922-1.145,6.144-1.145
				c2.194,0,4.228,0.382,6.103,1.145c1.875,0.764,3.513,1.832,4.916,3.207c1.402,1.375,2.492,2.986,3.27,4.833
				c0.777,1.846,1.166,3.852,1.166,6.019c0,2.139-0.389,4.131-1.166,5.978c-0.778,1.847-1.861,3.457-3.249,4.832
				c-1.389,1.374-3.02,2.451-4.895,3.228C362.848,294.669,360.828,295.058,358.662,295.058z M358.578,289.101
				c1.75,0,3.284-0.388,4.603-1.166c1.318-0.776,2.339-1.867,3.062-3.27c0.722-1.402,1.083-3.02,1.083-4.853
				c0-1.389-0.209-2.646-0.625-3.77c-0.417-1.124-1.015-2.096-1.791-2.916c-0.778-0.819-1.702-1.444-2.77-1.874
				c-1.069-0.43-2.257-0.646-3.562-0.646c-1.75,0-3.284,0.382-4.603,1.145c-1.319,0.764-2.34,1.833-3.062,3.208
				c-0.723,1.375-1.083,2.993-1.083,4.853c0,1.388,0.209,2.652,0.625,3.79c0.417,1.139,1.007,2.118,1.771,2.937
				c0.763,0.819,1.687,1.451,2.77,1.896C356.079,288.88,357.273,289.101,358.578,289.101z"/>
			<path style="fill:#FF95FB;" d="M387.363,295.017c-2.083,0-3.965-0.464-5.645-1.395c-1.681-0.931-3.007-2.202-3.978-3.812
				c-0.972-1.61-1.458-3.415-1.458-5.415c0-1.999,0.486-3.79,1.458-5.374c0.971-1.583,2.291-2.838,3.957-3.769
				c1.666-0.931,3.555-1.396,5.665-1.396c2.11,0,3.999,0.458,5.665,1.375c1.667,0.917,2.985,2.174,3.957,3.77
				c0.972,1.597,1.458,3.395,1.458,5.394c0,2-0.486,3.805-1.458,5.415c-0.972,1.611-2.291,2.882-3.957,3.812
				C391.362,294.552,389.473,295.017,387.363,295.017z M387.363,289.227c0.916,0,1.721-0.202,2.416-0.604
				c0.694-0.402,1.229-0.972,1.604-1.708c0.375-0.735,0.563-1.576,0.563-2.521c0-0.944-0.195-1.77-0.583-2.478
				c-0.389-0.708-0.924-1.264-1.604-1.666c-0.681-0.402-1.479-0.605-2.395-0.605c-0.889,0-1.681,0.203-2.375,0.605
				c-0.695,0.402-1.236,0.965-1.625,1.687c-0.389,0.722-0.583,1.556-0.583,2.5c0,0.916,0.194,1.743,0.583,2.478
				c0.389,0.736,0.93,1.306,1.625,1.708C385.682,289.025,386.474,289.227,387.363,289.227z"/>
			<path style="fill:#FF95FB;" d="M401.609,299.953v-25.64h6.374v5.207l-1.041,4.916l0.958,4.915v10.602
				c0,1.737-1.408,3.145-3.145,3.145l0,0C403.017,303.098,401.609,301.69,401.609,299.953z M413.273,294.975
				c-1.361,0-2.611-0.264-3.749-0.791c-1.139-0.527-2.069-1.256-2.791-2.187c-0.722-0.931-1.139-1.993-1.25-3.186v-8.54
				c0.111-1.194,0.528-2.277,1.25-3.249c0.722-0.972,1.652-1.735,2.791-2.291c1.138-0.556,2.388-0.833,3.749-0.833
				c1.916,0,3.617,0.458,5.103,1.375c1.485,0.916,2.652,2.165,3.499,3.748c0.847,1.584,1.271,3.389,1.271,5.416
				c0,2.027-0.424,3.832-1.271,5.415c-0.847,1.583-2.013,2.832-3.499,3.749C416.89,294.516,415.189,294.975,413.273,294.975z
				 M412.107,289.227c0.916,0,1.714-0.209,2.395-0.625c0.68-0.416,1.215-0.986,1.604-1.708c0.389-0.722,0.583-1.542,0.583-2.457
				c0-0.944-0.195-1.777-0.583-2.5c-0.389-0.722-0.924-1.285-1.604-1.687c-0.681-0.402-1.465-0.605-2.354-0.605
				c-0.889,0-1.673,0.203-2.353,0.605c-0.681,0.402-1.215,0.965-1.604,1.687c-0.389,0.722-0.583,1.556-0.583,2.5
				c0,0.916,0.188,1.735,0.562,2.457c0.375,0.722,0.909,1.292,1.604,1.708C410.468,289.018,411.246,289.227,412.107,289.227z"/>
			<path style="fill:#FF95FB;" d="M433.767,295.058c-1.195,0-2.368-0.152-3.52-0.457c-1.153-0.306-2.222-0.743-3.208-1.313
				c-0.016-0.009-0.031-0.018-0.047-0.027c-1.421-0.828-1.623-2.811-0.466-3.981l0,0c0.848-0.858,2.157-0.973,3.195-0.357
				c0.254,0.151,0.52,0.287,0.797,0.409c0.916,0.402,1.916,0.604,2.999,0.604c0.75,0,1.326-0.11,1.729-0.333
				c0.402-0.223,0.604-0.528,0.604-0.917c0-0.499-0.243-0.882-0.729-1.145c-0.486-0.264-1.104-0.501-1.854-0.708
				c-0.75-0.209-1.541-0.437-2.375-0.688c-0.833-0.25-1.624-0.597-2.374-1.041c-0.75-0.443-1.361-1.062-1.833-1.854
				c-0.472-0.791-0.708-1.797-0.708-3.02c0-1.305,0.333-2.437,0.999-3.395c0.667-0.958,1.61-1.714,2.833-2.27
				c1.222-0.556,2.651-0.833,4.29-0.833c1.722,0,3.312,0.299,4.77,0.896c0.381,0.156,0.744,0.332,1.088,0.527
				c1.475,0.835,1.759,2.842,0.567,4.047l-0.073,0.074c-0.825,0.835-2.107,0.99-3.122,0.401c-0.216-0.125-0.438-0.232-0.667-0.321
				c-0.791-0.306-1.562-0.458-2.312-0.458c-0.723,0-1.264,0.104-1.625,0.312c-0.361,0.209-0.542,0.508-0.542,0.896
				c0,0.417,0.236,0.75,0.709,1c0.472,0.25,1.083,0.472,1.832,0.667c0.75,0.195,1.542,0.43,2.375,0.708
				c0.833,0.278,1.625,0.653,2.375,1.124c0.75,0.472,1.36,1.104,1.833,1.896c0.472,0.791,0.708,1.827,0.708,3.103
				c0,1.972-0.744,3.541-2.229,4.707C438.301,294.475,436.294,295.058,433.767,295.058z"/>
			<path style="fill:#FF95FB;" d="M449.096,295.017c-1.083,0-1.986-0.375-2.708-1.125c-0.723-0.749-1.083-1.652-1.083-2.707
				c0-1.11,0.361-2.034,1.083-2.77c0.722-0.735,1.624-1.104,2.708-1.104c1.11,0,2.021,0.369,2.729,1.104
				c0.708,0.736,1.062,1.66,1.062,2.77c0,1.055-0.354,1.958-1.062,2.707C451.117,294.642,450.207,295.017,449.096,295.017z
				 M446.594,281.419l-0.913-17.103h6.873l-0.913,17.103c-0.072,1.341-1.18,2.392-2.523,2.392l0,0
				C447.774,283.811,446.666,282.761,446.594,281.419z"/>
		</g>
	</g>
</g>
</svg>
